<?xml version="1.0" encoding="UTF-8" standalone="no"?>
<!-- Created with Inkscape (http://www.inkscape.org/) -->

<svg
   xmlns:dc="http://purl.org/dc/elements/1.1/"
   xmlns:cc="http://creativecommons.org/ns#"
   xmlns:rdf="http://www.w3.org/1999/02/22-rdf-syntax-ns#"
   xmlns:svg="http://www.w3.org/2000/svg"
   xmlns="http://www.w3.org/2000/svg"
   xmlns:sodipodi="http://sodipodi.sourceforge.net/DTD/sodipodi-0.dtd"
   xmlns:inkscape="http://www.inkscape.org/namespaces/inkscape"
   id="svg3355"
   version="1.1"
   inkscape:version="0.91 r13725"
   xml:space="preserve"
   width="1080.3944"
   height="427.23697"
   viewBox="0 0 1080.3944 427.23697"
   sodipodi:docname="nitor_grayscale.svg"
   inkscape:export-filename="/home/markku/Desktop/nitor_grayscale.png"
   inkscape:export-xdpi="102.62627"
   inkscape:export-ydpi="102.62627"><metadata
     id="metadata3361"><rdf:RDF><cc:Work
         rdf:about=""><dc:format>image/svg+xml</dc:format><dc:type
           rdf:resource="http://purl.org/dc/dcmitype/StillImage" /><dc:title></dc:title></cc:Work></rdf:RDF></metadata><defs
     id="defs3359"><clipPath
       clipPathUnits="userSpaceOnUse"
       id="clipPath3375"><path
         d="M 0,500 1000,500 1000,0 0,0 0,500 Z"
         id="path3377"
         inkscape:connector-curvature="0" /></clipPath><clipPath
       clipPathUnits="userSpaceOnUse"
       id="clipPath3397"><path
         d="m 451.4,167.047 37.901,0 0,40.617 -37.901,0 0,-40.617 z"
         id="path3399"
         inkscape:connector-curvature="0" /></clipPath><clipPath
       clipPathUnits="userSpaceOnUse"
       id="clipPath3409"><path
         d="M 0,500 1000,500 1000,0 0,0 0,500 Z"
         id="path3411"
         inkscape:connector-curvature="0" /></clipPath><clipPath
       clipPathUnits="userSpaceOnUse"
       id="clipPath3429"><path
         d="m 458.861,388.266 c -10.922,-22.078 -26.892,-31.572 -37.387,-55.329 l 0,0 c -3.501,-7.912 -6.361,-18.107 -5.737,-27.211 l 0,0 c 0.6,-8.847 3.793,-18.682 8.833,-25.106 l 0,0 c 9.585,-12.245 26.548,-22.125 43.01,-25.726 l 0,0 c -5.234,3.079 -11.584,9.598 -15.197,15.957 l 0,0 c -3.315,5.838 -5.749,13.178 -6.19,21.755 l 0,0 c -0.453,8.653 1.317,17.103 4.823,24.229 l 0,0 c 7.19,14.635 17.982,24.386 27.222,37.783 l 0,0 c 4.595,6.659 10.483,16.312 9.647,26.06 l 0,0 c -1.805,20.909 -17.045,42.077 -30.75,54.457 l 0,0 c 11.646,-14.419 6.32,-37.566 1.726,-46.869"
         id="path3431"
         inkscape:connector-curvature="0" /></clipPath></defs><sodipodi:namedview
     pagecolor="#ffffff"
     bordercolor="#666666"
     borderopacity="1"
     objecttolerance="10"
     gridtolerance="10"
     guidetolerance="10"
     inkscape:pageopacity="0"
     inkscape:pageshadow="2"
     inkscape:window-width="3200"
     inkscape:window-height="1734"
     id="namedview3357"
     showgrid="false"
     fit-margin-top="0"
     fit-margin-left="0"
     fit-margin-right="0"
     fit-margin-bottom="0"
     inkscape:zoom="1.9632"
     inkscape:cx="528.661"
     inkscape:cy="195.81821"
     inkscape:window-x="0"
     inkscape:window-y="1472"
     inkscape:window-maximized="0"
     inkscape:current-layer="g3363" /><g
     id="g3363"
     inkscape:groupmode="layer"
     inkscape:label="Nitor Logo White Background Grayscale"
     transform="matrix(1.25,0,0,-1.25,-96.339,543.91875)"><g
       id="g3365"
       transform="translate(214.7832,145.4453)"
       inkscape:export-filename="/home/markku/Desktop/nitor_grayscale.png"
       inkscape:export-xdpi="100.06157"
       inkscape:export-ydpi="100.06157"><path
         d="m 0,0 -101.384,102.34 -36.328,0 0,-149.723 36.956,0 0,101.396 L 0,-47.383 l 36.954,0 0,149.723 L 0,102.34 0,0 Z"
         style="fill:#808184;fill-opacity:1;fill-rule:nonzero;stroke:none"
         id="path3367"
         inkscape:connector-curvature="0" /></g><path
       d="m 312.814,98.063 40.749,0 0,150.035 -40.749,0 0,-150.035 z"
       style="fill:#808184;fill-opacity:1;fill-rule:nonzero;stroke:none"
       id="path3369"
       inkscape:connector-curvature="0"
       inkscape:export-filename="/home/markku/Desktop/nitor_grayscale.png"
       inkscape:export-xdpi="100.06157"
       inkscape:export-ydpi="100.06157" /><g
       id="g3371"
       inkscape:export-filename="/home/markku/Desktop/nitor_grayscale.png"
       inkscape:export-xdpi="100.06157"
       inkscape:export-ydpi="100.06157"><g
         id="g3373"
         clip-path="url(#clipPath3375)"><g
           id="g3379"
           transform="translate(679.8447,134.7031)"><path
             d="M 0,0 C -25.266,-12.949 -58.75,-7.583 -73.912,14.529 -88.125,35.06 -79.597,64.435 -55.585,76.756 -31.269,89.391 2.22,84.339 17.059,62.543 31.586,41.691 23.69,12.318 0,0 m -90.019,96.337 c -36.954,-31.27 -37.906,-82.126 -2.841,-113.71 33.798,-30.955 89.703,-32.218 125.084,-2.21 C 68.86,11.688 68.86,62.225 33.796,94.124 0,124.767 -54.959,125.714 -90.019,96.337"
             style="fill:#808184;fill-opacity:1;fill-rule:nonzero;stroke:none"
             id="path3381"
             inkscape:connector-curvature="0" /></g><g
           id="g3383"
           transform="translate(808.0967,188.7178)"><path
             d="m 0,0 0,28.111 62.536,0 c 0,0 24.956,0 24.956,-13.903 C 87.492,0.313 62.536,0 62.536,0 L 0,0 Z m 82.434,-30.324 c 15.485,2.526 42.64,11.687 42.64,43.906 0,45.799 -53.056,45.799 -53.056,45.799 l -109.61,0 0,-150.035 37.592,0 0,59.38 34.105,0 50.232,-59.38 48.953,0 -50.856,60.33 z"
             style="fill:#808184;fill-opacity:1;fill-rule:nonzero;stroke:none"
             id="path3385"
             inkscape:connector-curvature="0" /></g><g
           id="g3387"
           transform="translate(538.8623,250.2212)"><path
             d="M 0,0 C -0.083,-0.189 -0.206,-0.379 -0.349,-0.564 -0.411,-0.631 -0.482,-0.705 -0.543,-0.771 -0.646,-0.89 -0.76,-1.007 -0.885,-1.118 -0.986,-1.208 -1.1,-1.292 -1.203,-1.373 c -0.123,-0.094 -0.236,-0.189 -0.382,-0.284 -0.122,-0.08 -0.256,-0.168 -0.397,-0.251 -0.146,-0.091 -0.3,-0.185 -0.466,-0.275 -0.153,-0.083 -0.306,-0.162 -0.462,-0.24 -0.186,-0.09 -0.359,-0.185 -0.555,-0.271 -0.174,-0.08 -0.358,-0.157 -0.555,-0.242 -0.196,-0.088 -0.401,-0.173 -0.616,-0.257 -0.218,-0.083 -0.432,-0.163 -0.649,-0.244 -0.236,-0.083 -0.474,-0.174 -0.721,-0.259 -0.213,-0.072 -0.441,-0.143 -0.656,-0.22 -0.3,-0.094 -0.608,-0.184 -0.914,-0.284 -0.208,-0.062 -0.423,-0.122 -0.641,-0.184 -0.369,-0.105 -0.75,-0.213 -1.14,-0.315 -0.225,-0.062 -0.454,-0.125 -0.689,-0.177 -0.464,-0.121 -0.935,-0.236 -1.421,-0.349 -0.203,-0.044 -0.411,-0.09 -0.614,-0.141 -0.741,-0.167 -1.513,-0.331 -2.305,-0.485 -0.132,-0.03 -0.277,-0.056 -0.409,-0.081 -0.763,-0.151 -1.543,-0.293 -2.347,-0.439 -0.226,-0.035 -0.441,-0.076 -0.668,-0.113 -1.037,-0.181 -2.116,-0.353 -3.238,-0.517 -0.145,-0.021 -0.286,-0.042 -0.431,-0.07 -1.202,-0.173 -2.438,-0.342 -3.71,-0.501 -0.105,-0.016 -0.218,-0.03 -0.331,-0.049 -1.245,-0.152 -2.539,-0.302 -3.858,-0.445 -0.288,-0.037 -0.586,-0.067 -0.884,-0.098 -1.19,-0.125 -2.405,-0.247 -3.65,-0.357 -0.12,-0.012 -0.256,-0.023 -0.379,-0.033 -1.039,-0.095 -2.097,-0.185 -3.178,-0.268 -0.402,-0.034 -0.813,-0.067 -1.224,-0.096 -1.192,-0.088 -2.384,-0.178 -3.608,-0.254 -0.164,-0.01 -0.331,-0.024 -0.492,-0.031 -1.543,-0.101 -3.128,-0.184 -4.72,-0.268 -0.33,-0.014 -0.651,-0.029 -0.979,-0.044 -1.552,-0.076 -3.128,-0.146 -4.719,-0.203 -0.492,-0.014 -0.989,-0.03 -1.48,-0.046 -0.698,-0.026 -1.389,-0.044 -2.089,-0.06 -0.524,-0.016 -1.037,-0.033 -1.561,-0.042 -0.506,-0.009 -0.996,-0.018 -1.502,-0.03 -0.699,-0.016 -1.4,-0.025 -2.106,-0.037 -0.299,-0.007 -0.61,-0.011 -0.908,-0.016 -0.986,-0.009 -1.971,-0.018 -2.959,-0.025 -0.268,0 -0.538,-0.005 -0.795,-0.005 -1.025,-0.005 -2.056,-0.005 -3.095,-0.005 -1.127,0.005 -2.259,0.01 -3.37,0.026 -0.143,0 -0.279,0 -0.411,0.004 -0.927,0.01 -1.839,0.021 -2.747,0.037 -0.266,0.005 -0.522,0.009 -0.792,0.014 -0.781,0.019 -1.561,0.037 -2.342,0.054 -0.352,0.009 -0.7,0.017 -1.04,0.029 -0.554,0.012 -1.099,0.03 -1.654,0.049 -0.526,0.012 -1.06,0.034 -1.584,0.049 -0.947,0.032 -1.88,0.066 -2.807,0.108 -0.071,0.005 -0.143,0.005 -0.217,0.012 -0.802,0.027 -1.582,0.069 -2.377,0.113 -0.298,0.009 -0.605,0.023 -0.901,0.039 -0.639,0.033 -1.277,0.067 -1.906,0.102 -0.408,0.027 -0.819,0.051 -1.221,0.071 -0.578,0.032 -1.141,0.074 -1.707,0.109 -0.483,0.032 -0.977,0.065 -1.46,0.094 -0.434,0.031 -0.864,0.068 -1.296,0.098 -0.617,0.048 -1.236,0.087 -1.838,0.139 -0.456,0.034 -0.897,0.071 -1.34,0.108 -0.566,0.046 -1.13,0.095 -1.696,0.143 -0.494,0.046 -0.977,0.092 -1.471,0.141 -0.543,0.048 -1.088,0.102 -1.636,0.156 -0.45,0.042 -0.903,0.088 -1.346,0.137 -0.668,0.071 -1.338,0.144 -1.982,0.22 -0.361,0.041 -0.723,0.083 -1.081,0.122 -1.058,0.125 -2.109,0.257 -3.114,0.393 -0.217,0.03 -0.435,0.06 -0.651,0.085 -1.079,0.15 -2.14,0.303 -3.167,0.464 -0.153,0.024 -0.328,0.051 -0.483,0.072 -0.346,0.055 -0.689,0.113 -1.037,0.173 -0.434,0.067 -0.864,0.139 -1.287,0.212 -0.224,0.04 -0.441,0.081 -0.667,0.123 -0.504,0.092 -1.008,0.178 -1.49,0.273 -0.072,0.014 -0.134,0.032 -0.206,0.042 -0.577,0.112 -1.141,0.225 -1.689,0.342 -0.163,0.036 -0.316,0.069 -0.482,0.108 -0.442,0.095 -0.882,0.19 -1.305,0.288 -0.185,0.042 -0.358,0.088 -0.543,0.13 -0.393,0.093 -0.763,0.191 -1.135,0.281 -0.184,0.049 -0.369,0.095 -0.554,0.146 -0.348,0.093 -0.69,0.185 -1.018,0.284 -0.174,0.044 -0.349,0.098 -0.515,0.148 -0.338,0.097 -0.657,0.194 -0.975,0.298 -0.144,0.046 -0.289,0.093 -0.432,0.141 -0.361,0.115 -0.7,0.238 -1.03,0.363 -0.081,0.026 -0.162,0.051 -0.245,0.083 -0.402,0.153 -0.783,0.307 -1.153,0.462 -0.06,0.025 -0.113,0.053 -0.162,0.081 -0.297,0.124 -0.577,0.254 -0.836,0.386 -0.104,0.053 -0.194,0.108 -0.298,0.161 -0.194,0.102 -0.39,0.208 -0.563,0.312 -0.104,0.062 -0.197,0.129 -0.289,0.189 -0.153,0.1 -0.309,0.196 -0.441,0.299 -0.095,0.064 -0.176,0.136 -0.257,0.196 -0.113,0.101 -0.226,0.201 -0.33,0.298 -0.072,0.067 -0.146,0.134 -0.206,0.206 -0.092,0.104 -0.173,0.207 -0.244,0.309 -0.056,0.06 -0.095,0.127 -0.137,0.196 -0.071,0.113 -0.122,0.224 -0.164,0.342 -0.03,0.053 -0.062,0.109 -0.069,0.166 -0.056,0.169 -0.085,0.344 -0.085,0.513 l 0,-32.999 c 0,-0.172 0.029,-0.339 0.085,-0.515 0.007,-0.051 0.039,-0.109 0.069,-0.166 0.042,-0.114 0.093,-0.232 0.164,-0.342 0.042,-0.069 0.081,-0.13 0.137,-0.19 0.071,-0.108 0.152,-0.212 0.244,-0.316 0.06,-0.065 0.134,-0.132 0.196,-0.199 0.114,-0.104 0.227,-0.201 0.347,-0.298 0.074,-0.066 0.155,-0.136 0.25,-0.196 0.132,-0.102 0.288,-0.205 0.441,-0.31 0.092,-0.056 0.185,-0.115 0.289,-0.18 0.173,-0.109 0.369,-0.211 0.563,-0.319 0.104,-0.051 0.194,-0.106 0.298,-0.159 0.259,-0.127 0.539,-0.257 0.825,-0.379 0.06,-0.032 0.113,-0.058 0.185,-0.088 0.358,-0.154 0.739,-0.309 1.141,-0.457 0.092,-0.037 0.184,-0.069 0.277,-0.104 0.321,-0.113 0.647,-0.231 0.989,-0.344 0.152,-0.051 0.318,-0.104 0.482,-0.152 0.298,-0.095 0.596,-0.192 0.915,-0.285 0.185,-0.055 0.379,-0.108 0.575,-0.164 0.31,-0.088 0.617,-0.176 0.947,-0.263 0.206,-0.055 0.421,-0.111 0.638,-0.164 0.325,-0.085 0.656,-0.168 1.007,-0.251 0.226,-0.051 0.443,-0.11 0.677,-0.161 0.363,-0.087 0.732,-0.171 1.111,-0.251 0.226,-0.046 0.441,-0.097 0.669,-0.145 0.454,-0.093 0.904,-0.186 1.368,-0.277 0.173,-0.036 0.349,-0.07 0.525,-0.102 0.041,-0.01 0.071,-0.015 0.113,-0.025 0.318,-0.059 0.646,-0.114 0.977,-0.176 0.349,-0.068 0.7,-0.127 1.058,-0.192 0.422,-0.077 0.852,-0.143 1.286,-0.214 0.307,-0.051 0.617,-0.103 0.947,-0.156 0.072,-0.013 0.143,-0.023 0.213,-0.039 0.134,-0.02 0.288,-0.037 0.423,-0.057 1.021,-0.16 2.078,-0.313 3.157,-0.458 0.114,-0.021 0.203,-0.037 0.319,-0.048 0.051,-0.007 0.113,-0.012 0.173,-0.024 1.049,-0.14 2.139,-0.277 3.248,-0.406 0.065,-0.01 0.127,-0.014 0.187,-0.025 0.206,-0.019 0.411,-0.047 0.608,-0.068 0.759,-0.088 1.531,-0.169 2.3,-0.249 0.176,-0.023 0.33,-0.044 0.506,-0.06 0.194,-0.019 0.411,-0.039 0.608,-0.053 0.647,-0.067 1.296,-0.132 1.963,-0.199 0.236,-0.019 0.474,-0.046 0.718,-0.065 0.144,-0.015 0.301,-0.025 0.442,-0.037 0.711,-0.064 1.441,-0.124 2.171,-0.184 0.226,-0.021 0.432,-0.041 0.658,-0.058 0.063,-0.005 0.134,-0.007 0.208,-0.014 0.829,-0.067 1.673,-0.13 2.525,-0.189 0.178,-0.012 0.341,-0.025 0.515,-0.037 0.032,-0.007 0.062,-0.007 0.095,-0.012 0.831,-0.053 1.674,-0.108 2.529,-0.161 0.185,-0.012 0.369,-0.028 0.566,-0.037 l 0.06,0 c 1.8,-0.11 3.64,-0.208 5.512,-0.294 0.071,0 0.149,-0.004 0.226,-0.012 l 0,-109.588 37.9,0 0,109.6 c 0.394,0.015 0.788,0.03 1.174,0.047 0.247,0.009 0.483,0.025 0.73,0.034 1.665,0.081 3.312,0.176 4.925,0.277 l 0.044,0 c 0.048,0.007 0.09,0.012 0.141,0.012 1.346,0.085 2.653,0.18 3.949,0.274 0.195,0.019 0.389,0.029 0.573,0.044 0.167,0.012 0.321,0.026 0.485,0.042 1.183,0.092 2.365,0.192 3.509,0.298 l 0.057,0 0.012,0 c 1.287,0.118 2.529,0.247 3.766,0.376 0.132,0.012 0.274,0.024 0.408,0.04 0.123,0.016 0.25,0.032 0.382,0.046 1.307,0.139 2.58,0.289 3.815,0.442 0.061,0.006 0.123,0.011 0.174,0.022 0.134,0.015 0.256,0.035 0.39,0.049 1.236,0.162 2.427,0.326 3.59,0.494 0.083,0.012 0.173,0.021 0.268,0.037 0.032,0.007 0.071,0.012 0.104,0.017 1.14,0.168 2.229,0.348 3.289,0.526 0.092,0.019 0.184,0.032 0.265,0.051 0.125,0.016 0.227,0.039 0.352,0.057 0.758,0.137 1.501,0.276 2.22,0.414 0.154,0.028 0.309,0.055 0.453,0.084 0.052,0.008 0.101,0.025 0.154,0.036 0.783,0.153 1.541,0.309 2.262,0.478 0.041,0.007 0.083,0.017 0.122,0.021 0.145,0.037 0.267,0.069 0.413,0.099 0.514,0.122 1.016,0.25 1.511,0.37 0.083,0.021 0.173,0.041 0.256,0.065 0.134,0.034 0.259,0.071 0.4,0.108 0.381,0.095 0.756,0.198 1.113,0.303 0.122,0.034 0.257,0.066 0.37,0.102 0.124,0.037 0.229,0.074 0.339,0.106 0.308,0.092 0.606,0.187 0.895,0.277 0.122,0.041 0.256,0.078 0.379,0.118 0.083,0.032 0.156,0.064 0.249,0.089 0.265,0.091 0.522,0.186 0.771,0.276 0.132,0.049 0.266,0.094 0.391,0.14 0.071,0.033 0.132,0.056 0.203,0.081 0.238,0.1 0.455,0.192 0.679,0.289 0.116,0.046 0.247,0.092 0.351,0.146 0.051,0.019 0.093,0.044 0.144,0.071 0.216,0.097 0.411,0.195 0.607,0.298 0.102,0.051 0.215,0.1 0.31,0.148 0.039,0.023 0.071,0.042 0.101,0.065 0.185,0.102 0.349,0.198 0.513,0.3 0.092,0.057 0.196,0.108 0.277,0.167 0.032,0.02 0.053,0.039 0.083,0.059 0.155,0.104 0.289,0.208 0.411,0.31 0.083,0.056 0.166,0.12 0.238,0.173 0.021,0.023 0.03,0.037 0.049,0.055 0.136,0.116 0.25,0.239 0.353,0.359 0.049,0.056 0.12,0.113 0.173,0.168 0,0 0.012,0.028 0.021,0.037 0.288,0.37 0.464,0.751 0.513,1.132 l 0,32.999 C 0.146,0.386 0.092,0.201 0.012,0.023 0.012,0.023 0,0.004 0,0"
             style="fill:#808184;fill-opacity:1;fill-rule:nonzero;stroke:none"
             id="path3389"
             inkscape:connector-curvature="0" /></g><path
           d="m 451.399,167.047 37.901,0 0,40.617 -37.901,0 0,-40.617 z"
           style="fill:#808184;fill-opacity:1;fill-rule:nonzero;stroke:none"
           id="path3391"
           inkscape:connector-curvature="0" /></g></g><g
       id="g3393"
       inkscape:export-filename="/home/markku/Desktop/nitor_grayscale.png"
       inkscape:export-xdpi="100.06157"
       inkscape:export-ydpi="100.06157"><g
         id="g3395"
         clip-path="url(#clipPath3397)"><g
           id="g3401"
           transform="translate(451.3994,207.6523)"><path
             d="m 0,0 37.901,0.012 0,-40.617 L 0,0 Z"
             style="fill:#231f20;fill-opacity:1;fill-rule:evenodd;stroke:none"
             id="path3403"
             inkscape:connector-curvature="0" /></g></g></g><g
       id="g3405"
       inkscape:export-filename="/home/markku/Desktop/nitor_grayscale.png"
       inkscape:export-xdpi="100.06157"
       inkscape:export-ydpi="100.06157"><g
         id="g3407"
         clip-path="url(#clipPath3409)"><g
           id="g3413"
           transform="translate(516.6064,348.0669)"><path
             d="m 0,0 c 15.527,-25.693 -17.084,-46.235 -25.557,-63.365 -5.398,-10.891 -5.201,-18.168 -4.164,-25.042 2.499,8.166 8.371,17.458 20.323,25.825 C 6.478,-51.467 21.937,-30.777 0,0"
             style="fill:#808184;fill-opacity:1;fill-rule:evenodd;stroke:none"
             id="path3415"
             inkscape:connector-curvature="0" /></g><g
           id="g3417"
           transform="translate(496.9297,374.6172)"><path
             d="m 0,0 c 4.874,-7.567 9.075,-15.98 8.854,-29.437 -0.434,-26.042 -33.166,-41.394 -34.799,-64.361 -0.249,-3.363 0.582,-5.595 1.818,-8.085 -5.915,5.424 -10.919,19.228 -7.731,30.944 5.943,21.808 37.372,39.224 34.2,61.561 C 1.815,-5.703 1.497,-2.739 0,0"
             style="fill:#808184;fill-opacity:1;fill-rule:evenodd;stroke:none"
             id="path3419"
             inkscape:connector-curvature="0" /></g><g
           id="g3421"
           transform="translate(458.8604,388.2661)"><path
             d="m 0,0 c -10.921,-22.078 -26.892,-31.572 -37.386,-55.329 -3.502,-7.912 -6.361,-18.108 -5.738,-27.211 0.601,-8.847 3.793,-18.682 8.833,-25.106 9.586,-12.245 26.548,-22.125 43.011,-25.726 -5.234,3.08 -11.584,9.598 -15.197,15.957 -3.315,5.837 -5.749,13.178 -6.19,21.755 -0.453,8.653 1.316,17.102 4.823,24.229 7.19,14.635 17.982,24.385 27.222,37.783 4.594,6.659 10.482,16.312 9.646,26.06 C 27.22,13.321 11.979,34.489 -1.726,46.868 9.921,32.45 4.594,9.302 0,0"
             style="fill:#808184;fill-opacity:1;fill-rule:nonzero;stroke:none"
             id="path3423"
             inkscape:connector-curvature="0" /></g></g></g><g
       id="g3425"
       inkscape:export-filename="/home/markku/Desktop/nitor_grayscale.png"
       inkscape:export-xdpi="100.06157"
       inkscape:export-ydpi="100.06157"><g
         id="g3427"
         clip-path="url(#clipPath3429)"><g
           id="g3433"
           transform="translate(330.4282,375.8369)"><path
             d="M 0,0 134.076,93.881 242.977,-61.646 108.901,-155.526 0,0 Z"
             style="fill:#808184;fill-opacity:1;fill-rule:nonzero;stroke:none"
             id="path3435"
             inkscape:connector-curvature="0" /></g></g></g></g></svg>